<mxfile host="app.diagrams.net" modified="2021-02-15T05:30:49.711Z" agent="5.0 (Macintosh; Intel Mac OS X 10_15_7) AppleWebKit/537.36 (KHTML, like Gecko) Chrome/88.0.4324.150 Safari/537.36" etag="utRZh4JB-wVHfKJPz2on" version="14.3.0" type="github">
  <diagram id="EHxILI9CEkPSfjAycWgh" name="Page-1">
    <mxGraphModel dx="946" dy="1749" grid="1" gridSize="10" guides="1" tooltips="1" connect="1" arrows="1" fold="1" page="1" pageScale="1" pageWidth="827" pageHeight="1169" math="0" shadow="0">
      <root>
        <mxCell id="0" />
        <mxCell id="1" parent="0" />
        <mxCell id="RG3UwwgLp89Rtfrr_dlu-25" value="" style="shape=ext;rounded=1;html=1;whiteSpace=wrap;dashed=1;dashPattern=1 4;" parent="1" vertex="1">
          <mxGeometry x="360" y="80" width="350" height="220" as="geometry" />
        </mxCell>
        <mxCell id="RG3UwwgLp89Rtfrr_dlu-26" value="" style="shape=ext;rounded=1;html=1;whiteSpace=wrap;dashed=1;dashPattern=1 4;" parent="1" vertex="1">
          <mxGeometry x="550" y="92.5" width="140" height="197.5" as="geometry" />
        </mxCell>
        <mxCell id="RG3UwwgLp89Rtfrr_dlu-7" value="" style="edgeStyle=orthogonalEdgeStyle;rounded=0;orthogonalLoop=1;jettySize=auto;html=1;" parent="1" source="RG3UwwgLp89Rtfrr_dlu-1" target="RG3UwwgLp89Rtfrr_dlu-2" edge="1">
          <mxGeometry relative="1" as="geometry" />
        </mxCell>
        <mxCell id="RG3UwwgLp89Rtfrr_dlu-1" value="&lt;font color=&quot;#ffffff&quot;&gt;字节码&lt;/font&gt;" style="ellipse;whiteSpace=wrap;html=1;fillColor=#fad7ac;strokeColor=#b46504;" parent="1" vertex="1">
          <mxGeometry x="140" y="80" width="110" height="50" as="geometry" />
        </mxCell>
        <mxCell id="RG3UwwgLp89Rtfrr_dlu-8" value="" style="rounded=0;orthogonalLoop=1;jettySize=auto;html=1;" parent="1" source="RG3UwwgLp89Rtfrr_dlu-2" target="RG3UwwgLp89Rtfrr_dlu-3" edge="1">
          <mxGeometry relative="1" as="geometry" />
        </mxCell>
        <mxCell id="RG3UwwgLp89Rtfrr_dlu-9" style="rounded=0;orthogonalLoop=1;jettySize=auto;html=1;" parent="1" source="RG3UwwgLp89Rtfrr_dlu-2" target="RG3UwwgLp89Rtfrr_dlu-4" edge="1">
          <mxGeometry relative="1" as="geometry" />
        </mxCell>
        <mxCell id="RG3UwwgLp89Rtfrr_dlu-2" value="&lt;font color=&quot;#ffffff&quot;&gt;类加载&lt;/font&gt;" style="rounded=0;whiteSpace=wrap;html=1;fillColor=#dae8fc;strokeColor=#6c8ebf;" parent="1" vertex="1">
          <mxGeometry x="135" y="170" width="120" height="40" as="geometry" />
        </mxCell>
        <mxCell id="RG3UwwgLp89Rtfrr_dlu-11" value="" style="edgeStyle=none;rounded=0;orthogonalLoop=1;jettySize=auto;html=1;" parent="1" source="RG3UwwgLp89Rtfrr_dlu-3" target="RG3UwwgLp89Rtfrr_dlu-6" edge="1">
          <mxGeometry relative="1" as="geometry" />
        </mxCell>
        <mxCell id="RG3UwwgLp89Rtfrr_dlu-3" value="&lt;font color=&quot;#ffffff&quot;&gt;解释执行&lt;/font&gt;" style="rounded=0;whiteSpace=wrap;html=1;fillColor=#ffe6cc;strokeColor=#d79b00;" parent="1" vertex="1">
          <mxGeometry x="60" y="260" width="120" height="40" as="geometry" />
        </mxCell>
        <mxCell id="RG3UwwgLp89Rtfrr_dlu-10" value="" style="edgeStyle=none;rounded=0;orthogonalLoop=1;jettySize=auto;html=1;" parent="1" source="RG3UwwgLp89Rtfrr_dlu-4" target="RG3UwwgLp89Rtfrr_dlu-5" edge="1">
          <mxGeometry relative="1" as="geometry" />
        </mxCell>
        <mxCell id="RG3UwwgLp89Rtfrr_dlu-4" value="JIT编译" style="rounded=0;whiteSpace=wrap;html=1;fillColor=#a0522d;strokeColor=#6D1F00;fontColor=#ffffff;" parent="1" vertex="1">
          <mxGeometry x="220" y="260" width="120" height="40" as="geometry" />
        </mxCell>
        <mxCell id="RG3UwwgLp89Rtfrr_dlu-12" value="" style="edgeStyle=none;rounded=0;orthogonalLoop=1;jettySize=auto;html=1;" parent="1" source="RG3UwwgLp89Rtfrr_dlu-5" target="RG3UwwgLp89Rtfrr_dlu-6" edge="1">
          <mxGeometry relative="1" as="geometry" />
        </mxCell>
        <mxCell id="RG3UwwgLp89Rtfrr_dlu-5" value="机器码" style="ellipse;whiteSpace=wrap;html=1;fillColor=#a0522d;strokeColor=#6D1F00;fontColor=#ffffff;" parent="1" vertex="1">
          <mxGeometry x="220" y="345" width="120" height="50" as="geometry" />
        </mxCell>
        <mxCell id="RG3UwwgLp89Rtfrr_dlu-6" value="&lt;font color=&quot;#ffffff&quot;&gt;CPU&lt;/font&gt;" style="whiteSpace=wrap;html=1;aspect=fixed;fillColor=#cdeb8b;strokeColor=#36393d;" parent="1" vertex="1">
          <mxGeometry x="80" y="330" width="80" height="80" as="geometry" />
        </mxCell>
        <mxCell id="RG3UwwgLp89Rtfrr_dlu-22" style="edgeStyle=none;rounded=0;orthogonalLoop=1;jettySize=auto;html=1;" parent="1" source="RG3UwwgLp89Rtfrr_dlu-15" target="RG3UwwgLp89Rtfrr_dlu-16" edge="1">
          <mxGeometry relative="1" as="geometry" />
        </mxCell>
        <mxCell id="RG3UwwgLp89Rtfrr_dlu-15" value="Link" style="rounded=0;whiteSpace=wrap;html=1;fillColor=#60a917;strokeColor=#2D7600;fontColor=#ffffff;" parent="1" vertex="1">
          <mxGeometry x="390" y="172.5" width="120" height="37.5" as="geometry" />
        </mxCell>
        <mxCell id="RG3UwwgLp89Rtfrr_dlu-16" value="&lt;font color=&quot;#ffffff&quot;&gt;Init&lt;/font&gt;" style="rounded=0;whiteSpace=wrap;html=1;fillColor=#b1ddf0;strokeColor=#10739e;" parent="1" vertex="1">
          <mxGeometry x="390" y="231.25" width="120" height="37.5" as="geometry" />
        </mxCell>
        <mxCell id="RG3UwwgLp89Rtfrr_dlu-21" value="" style="edgeStyle=none;rounded=0;orthogonalLoop=1;jettySize=auto;html=1;" parent="1" source="RG3UwwgLp89Rtfrr_dlu-17" target="RG3UwwgLp89Rtfrr_dlu-15" edge="1">
          <mxGeometry relative="1" as="geometry" />
        </mxCell>
        <mxCell id="RG3UwwgLp89Rtfrr_dlu-17" value="&lt;font color=&quot;#ffffff&quot;&gt;Load&lt;/font&gt;" style="rounded=0;whiteSpace=wrap;html=1;fillColor=#b1ddf0;strokeColor=#10739e;" parent="1" vertex="1">
          <mxGeometry x="390" y="111.25" width="120" height="37.5" as="geometry" />
        </mxCell>
        <mxCell id="RG3UwwgLp89Rtfrr_dlu-23" style="edgeStyle=none;rounded=0;orthogonalLoop=1;jettySize=auto;html=1;" parent="1" source="RG3UwwgLp89Rtfrr_dlu-18" target="RG3UwwgLp89Rtfrr_dlu-19" edge="1">
          <mxGeometry relative="1" as="geometry" />
        </mxCell>
        <mxCell id="RG3UwwgLp89Rtfrr_dlu-18" value="验证" style="rounded=0;whiteSpace=wrap;html=1;fillColor=#60a917;strokeColor=#2D7600;fontColor=#ffffff;" parent="1" vertex="1">
          <mxGeometry x="560" y="112.5" width="120" height="37.5" as="geometry" />
        </mxCell>
        <mxCell id="RG3UwwgLp89Rtfrr_dlu-24" style="edgeStyle=none;rounded=0;orthogonalLoop=1;jettySize=auto;html=1;" parent="1" source="RG3UwwgLp89Rtfrr_dlu-19" target="RG3UwwgLp89Rtfrr_dlu-20" edge="1">
          <mxGeometry relative="1" as="geometry" />
        </mxCell>
        <mxCell id="RG3UwwgLp89Rtfrr_dlu-19" value="准备" style="rounded=0;whiteSpace=wrap;html=1;fillColor=#60a917;strokeColor=#2D7600;fontColor=#ffffff;" parent="1" vertex="1">
          <mxGeometry x="560" y="173.75" width="120" height="37.5" as="geometry" />
        </mxCell>
        <mxCell id="RG3UwwgLp89Rtfrr_dlu-20" value="解析" style="rounded=0;whiteSpace=wrap;html=1;fillColor=#60a917;strokeColor=#2D7600;fontColor=#ffffff;" parent="1" vertex="1">
          <mxGeometry x="560" y="232.5" width="120" height="37.5" as="geometry" />
        </mxCell>
        <mxCell id="RG3UwwgLp89Rtfrr_dlu-27" value="" style="endArrow=classic;html=1;exitX=1;exitY=0.5;exitDx=0;exitDy=0;entryX=0;entryY=0.5;entryDx=0;entryDy=0;" parent="1" source="RG3UwwgLp89Rtfrr_dlu-15" target="RG3UwwgLp89Rtfrr_dlu-26" edge="1">
          <mxGeometry width="50" height="50" relative="1" as="geometry">
            <mxPoint x="440" y="310" as="sourcePoint" />
            <mxPoint x="490" y="260" as="targetPoint" />
          </mxGeometry>
        </mxCell>
        <mxCell id="RG3UwwgLp89Rtfrr_dlu-40" style="edgeStyle=none;rounded=0;orthogonalLoop=1;jettySize=auto;html=1;dashed=1;" parent="1" source="RG3UwwgLp89Rtfrr_dlu-31" target="RG3UwwgLp89Rtfrr_dlu-17" edge="1">
          <mxGeometry relative="1" as="geometry" />
        </mxCell>
        <mxCell id="RG3UwwgLp89Rtfrr_dlu-31" value="读取文件产生二进制流，并转化为特定的数据结构，初步校验cafe babe魔法数、常量池、文件长度、是否有父类等，然后创建对应类的java.lang.Class实例" style="shape=ext;rounded=1;html=1;whiteSpace=wrap;dashed=1;dashPattern=1 4;" parent="1" vertex="1">
          <mxGeometry x="370" y="-60" width="160" height="100" as="geometry" />
        </mxCell>
        <mxCell id="RG3UwwgLp89Rtfrr_dlu-41" style="edgeStyle=none;rounded=0;orthogonalLoop=1;jettySize=auto;html=1;entryX=0.5;entryY=1;entryDx=0;entryDy=0;dashed=1;" parent="1" source="RG3UwwgLp89Rtfrr_dlu-32" target="RG3UwwgLp89Rtfrr_dlu-16" edge="1">
          <mxGeometry relative="1" as="geometry" />
        </mxCell>
        <mxCell id="RG3UwwgLp89Rtfrr_dlu-32" value="执行类构造器&amp;lt;clinit&amp;gt;方法，如果赋值运算是通过其他类的静态方法来完成的，那么会马上解析另外一个类，在虚拟机栈中执行完毕后通过返回值进行赋值。" style="shape=ext;rounded=1;html=1;whiteSpace=wrap;dashed=1;dashPattern=1 4;" parent="1" vertex="1">
          <mxGeometry x="370" y="330" width="165" height="100" as="geometry" />
        </mxCell>
        <mxCell id="RG3UwwgLp89Rtfrr_dlu-36" style="edgeStyle=none;rounded=0;orthogonalLoop=1;jettySize=auto;html=1;dashed=1;" parent="1" source="RG3UwwgLp89Rtfrr_dlu-33" target="RG3UwwgLp89Rtfrr_dlu-18" edge="1">
          <mxGeometry relative="1" as="geometry" />
        </mxCell>
        <mxCell id="RG3UwwgLp89Rtfrr_dlu-33" value="更详细的校验，比如final是否合规、类型是否正确、静态变量是否合理等" style="shape=ext;rounded=1;html=1;whiteSpace=wrap;dashed=1;dashPattern=1 4;" parent="1" vertex="1">
          <mxGeometry x="745" y="80" width="125" height="70" as="geometry" />
        </mxCell>
        <mxCell id="RG3UwwgLp89Rtfrr_dlu-37" style="edgeStyle=none;rounded=0;orthogonalLoop=1;jettySize=auto;html=1;dashed=1;" parent="1" source="RG3UwwgLp89Rtfrr_dlu-34" target="RG3UwwgLp89Rtfrr_dlu-19" edge="1">
          <mxGeometry relative="1" as="geometry" />
        </mxCell>
        <mxCell id="RG3UwwgLp89Rtfrr_dlu-34" value="为静态变量分配内存，并设定默认值" style="shape=ext;rounded=1;html=1;whiteSpace=wrap;dashed=1;dashPattern=1 4;" parent="1" vertex="1">
          <mxGeometry x="750" y="167.5" width="110" height="50" as="geometry" />
        </mxCell>
        <mxCell id="RG3UwwgLp89Rtfrr_dlu-39" style="edgeStyle=none;rounded=0;orthogonalLoop=1;jettySize=auto;html=1;entryX=1;entryY=0.5;entryDx=0;entryDy=0;dashed=1;" parent="1" source="RG3UwwgLp89Rtfrr_dlu-35" target="RG3UwwgLp89Rtfrr_dlu-20" edge="1">
          <mxGeometry relative="1" as="geometry" />
        </mxCell>
        <mxCell id="RG3UwwgLp89Rtfrr_dlu-35" value="解析类和方法确保类与类之间的相互引用正确性，完成内存结构布局" style="shape=ext;rounded=1;html=1;whiteSpace=wrap;dashed=1;dashPattern=1 4;" parent="1" vertex="1">
          <mxGeometry x="750" y="230" width="120" height="70" as="geometry" />
        </mxCell>
        <mxCell id="RG3UwwgLp89Rtfrr_dlu-42" value="" style="html=1;shadow=0;dashed=0;align=center;verticalAlign=middle;shape=mxgraph.arrows2.arrow;dy=0.6;dx=40;notch=0;fillColor=#FFB366;" parent="1" vertex="1">
          <mxGeometry x="270" y="176.25" width="80" height="30" as="geometry" />
        </mxCell>
      </root>
    </mxGraphModel>
  </diagram>
</mxfile>
